.


[color=green]Movies : Animation : HD1080p :Arabic[/color]

 


[img]http://img801.imageshack.us/img801/5346/thearistocats.jpg[/img]





[img]http://img219.imageshack.us/img219/462/imdbt.png[/img]
[color=red]IMDB:[/color] 
http://www.imdb.com/title/tt0065421/
[color=green]Genre:[/color]Animation | Adventure | Comedy 
[color=green]Source:[/color]Blu-ray Disc  
[color=red]Language:[/color]Arabic
[color=green]File size:[/color]3.89 GiB
[color=green]Overall bit rate:[/color]7107 Kbps
[color=green]Duration:[/color]1h 18mn 18s
[color=green]Encoder:[/color]alrmothe



[img]http://i.imgur.com/fXeWi.png[/img]

[color=red]Video Information[/color]
Format :Matroska
Format : AVC
Format profile:High@L4.1
Video Bit rate:6464 Kbps
Frame Rate: 23.976 fps
Bit depth : 8 bits
Scan type : Progressive
Bits/(Pixel*Frame):0.138
Stream size:3.47 GiB(89%)
[color=green]Resolution:1808x1080[/color]


[color=navy]Audio Information:[/color]
Format : AC-3
Bit rate mode : Constant
Bit rate : 640 Kbps
Channel(s) : 6 channels
Channel positions:Front: L C R, Side:L R,LFE
Sampling rate : 48.0 KHz
Bit depth : 16 bits
Compression mode : Lossy
Stream size:359 MiB(9%)


[color=green]SUB:[/color]Arabic .srt




[color=red]Screenshots[/color]
 
http://img221.imageshack.us/img221/8420/42069216.png
 
http://img96.imageshack.us/img96/2316/48747420.png
 
http://img811.imageshack.us/img811/6872/34990330.png
 
http://img715.imageshack.us/img715/1340/37129249.png
 
http://img651.imageshack.us/img651/4531/69028302.png

[img]http://img849.imageshack.us/img849/5594/thearistocatsarabic1080.png[/img]




3 ┘ê┘è╪╣┘à┘ä ╪╣┘ä┘ë ┘à┘è╪»┘è╪º ╪│┘è┘ü╪▒ ╪¿┘ä╪º┘è ╪│╪¬┘è╪┤┘å

You can play movie on PlayStation 3 Media Server 
http://www.ps3mediaserver.org/



kmplayer ┘ä╪ú┘ü╪╢┘ä ╪¼┘ê╪»╪⌐ ╪º╪│╪¬╪«╪»┘à ╪¿╪▒┘å╪º┘à╪¼ 

For Best quality used kmplayer 3.3.0.33 
http://kmplayer.en.softonic.com/







Trailer






.